<svg width="180" height="36" viewBox="0 0 180 36" fill="none" xmlns="http://www.w3.org/2000/svg">
<path fill-rule="evenodd" clip-rule="evenodd" d="M29.4471 7.22767C29.4471 7.22767 32.0299 7.89884 32.0299 12.38V17.8309C32.0113 18.4129 32.1208 18.992 32.3511 19.5302C32.5814 20.0683 32.9273 20.5531 33.3659 20.9527C33.8046 21.3523 34.3261 21.6575 34.8959 21.8483C35.4658 22.039 36.0711 22.1109 36.6718 22.0592C36.6718 22.0592 41.2685 22.3221 41.2685 17.8309V16.6083C41.2685 16.6083 36.4401 6.00616 29.4471 7.22767Z" fill="#E02D15"/>
<path fill-rule="evenodd" clip-rule="evenodd" d="M41.2425 15.6695C40.0663 13.3438 38.4852 11.2302 36.5681 9.42102C36.5681 9.42102 38.5716 5.59875 43.9029 6.57753C43.9029 6.57194 40.6631 6.61444 41.2425 15.6695Z" fill="#FFCC28"/>
<path fill-rule="evenodd" clip-rule="evenodd" d="M36.2011 9.10509C35.5175 8.48073 34.7325 7.96863 33.8775 7.58913C33.8775 7.58913 34.1313 5.3426 32.4868 4.48673C33.579 4.27646 34.7132 4.48187 35.6523 5.06003C36.5914 5.63819 37.2626 6.54436 37.5258 7.58913C36.9928 8.01286 36.544 8.52652 36.2011 9.10509Z" fill="#8B4083"/>
<path fill-rule="evenodd" clip-rule="evenodd" d="M36.4807 5.08983C37.1018 5.70987 37.5687 6.4582 37.8459 7.27818C38.2421 6.99095 38.6743 6.75337 39.1323 6.5711C39.1323 6.5711 38.9411 4.1176 40.4547 3.53918C39.7075 3.36587 38.9229 3.42214 38.2105 3.70013C37.498 3.97813 36.8933 4.46398 36.4807 5.08983Z" fill="#BDB400"/>
<path d="M26.3489 29.1812C27.0566 28.2328 28.1052 27.5731 29.2897 27.331C29.5002 27.2994 29.7129 27.2834 29.9259 27.2829C30.961 27.3221 31.9682 27.618 32.8505 28.142C34.0371 28.7852 35.0417 29.4407 35.927 30.0201C37.8772 31.2931 39.4218 32.2999 41.584 32.3692C41.6291 32.3692 41.6732 32.3692 41.7195 32.3692C42.3548 32.3723 42.9803 32.2183 43.5364 31.9218C44.069 31.6292 44.5132 31.2073 44.8249 30.698C45.0944 30.2849 45.2413 29.8083 45.2497 29.3202C45.2581 28.832 45.1276 28.351 44.8725 27.9295C44.5112 27.3846 43.974 26.9699 43.3441 26.7493C42.6586 26.511 41.9334 26.3972 41.2051 26.4138C41.0451 26.4138 40.8818 26.4138 40.7161 26.425C40.533 26.435 40.3534 26.4406 40.1819 26.4406C39.6931 26.4967 39.1975 26.4511 38.7284 26.307C38.2594 26.1628 37.8277 25.9235 37.4623 25.605C37.188 25.2459 37.0691 24.7978 37.1309 24.3555C38.7311 24.2705 43.5283 23.5468 43.5283 17.8676V12.0576C43.5283 12.0576 43.3603 8.94119 44.7485 8.39532C44.7485 8.39532 41.9814 8.36511 41.9814 12.684V17.9325C41.9205 19.2635 41.33 20.5205 40.3328 21.4416C39.3356 22.3627 38.0087 22.8768 36.6286 22.8768C35.2485 22.8768 33.9216 22.3627 32.9244 21.4416C31.9273 20.5205 31.3367 19.2635 31.2758 17.9325V12.684C31.2758 8.36623 28.5134 8.39532 28.5134 8.39532C29.8958 8.94119 29.7347 12.0576 29.7347 12.0576V17.8688C29.7347 23.4182 34.3187 24.237 36.0151 24.3499C35.9487 25.0376 36.1558 25.7239 36.5944 26.2695C37.0556 26.725 37.618 27.0734 38.239 27.2885C38.8601 27.5036 39.5236 27.5797 40.1796 27.5111C40.3696 27.5111 40.5712 27.5111 40.7728 27.4955C40.92 27.4887 41.0625 27.4865 41.2039 27.4865C41.7084 27.4215 42.2218 27.4796 42.697 27.6555C43.1723 27.8314 43.5943 28.1194 43.9246 28.4933C44.0729 28.7504 44.1457 29.0417 44.1351 29.3358C44.1244 29.6299 44.0308 29.9157 43.8644 30.1622C43.6423 30.5176 43.3268 30.81 42.9499 31.0098C42.5731 31.2095 42.1482 31.3096 41.7184 31.2998H41.6222C39.774 31.2394 38.4218 30.358 36.5469 29.1309C35.6443 28.5402 34.6153 27.8724 33.3905 27.2069C32.3456 26.5899 31.1525 26.2457 29.9282 26.2079C29.6565 26.2085 29.3852 26.2302 29.1171 26.2728C28.0779 26.453 27.1161 26.9227 26.35 27.6241L26.3489 29.1812Z" fill="#161615"/>
<path d="M46.9419 34.4093C46.9419 34.5829 46.8704 34.7493 46.7433 34.8721C46.6162 34.9948 46.4438 35.0637 46.264 35.0637V35.9989C46.7007 35.9986 47.1195 35.8311 47.4284 35.5331C47.7373 35.2351 47.9111 34.8309 47.9117 34.4093H46.9419ZM46.264 35.0637H27.0649V35.9989H46.2605V35.0637H46.264ZM27.0649 35.0637C26.9761 35.0642 26.8881 35.0475 26.8061 35.0147C26.7241 34.9818 26.6498 34.9335 26.5875 34.8724C26.5245 34.8119 26.4745 34.7399 26.4405 34.6606C26.4065 34.5813 26.3891 34.4963 26.3893 34.4105H25.4241C25.4235 34.6189 25.4655 34.8254 25.5476 35.0182C25.6298 35.2109 25.7505 35.3861 25.9029 35.5338C26.0553 35.6814 26.2364 35.7986 26.4358 35.8786C26.6352 35.9586 26.8489 35.9987 27.0649 35.9989V35.0637ZM26.3893 34.4105V1.59289H25.4241V34.4105H26.3893ZM26.3893 1.59177C26.389 1.50589 26.4062 1.42079 26.44 1.34135C26.4738 1.26191 26.5235 1.18968 26.5863 1.12879C26.649 1.06791 26.7236 1.01957 26.8057 0.986533C26.8878 0.953498 26.9759 0.936417 27.0649 0.93627V0C26.8488 0.000292896 26.6349 0.0417221 26.4354 0.121916C26.236 0.20211 26.0549 0.319495 25.9025 0.467349C25.7501 0.615203 25.6294 0.790623 25.5473 0.983567C25.4652 1.17651 25.4233 1.38319 25.4241 1.59177H26.3893ZM27.0649 0.93627H46.2605V0H27.0649V0.93627ZM46.264 0.93627C46.3531 0.936123 46.4415 0.952985 46.5238 0.985889C46.6062 1.01879 46.6811 1.06709 46.7441 1.128C46.8071 1.18891 46.857 1.26124 46.8909 1.34083C46.9248 1.42042 46.9422 1.5057 46.9419 1.59177H47.9117C47.9117 1.1698 47.7382 0.765098 47.4292 0.466615C47.1202 0.168132 46.7011 0.000296536 46.264 0V0.93627ZM46.9419 1.59177V34.4093H47.9117V1.59289L46.9419 1.59177Z" fill="#161615"/>
<path d="M21.5201 34.4093C21.5198 34.5824 21.4486 34.7484 21.322 34.8709C21.1955 34.9935 21.0238 35.0628 20.8445 35.0637V35.9989C21.0605 35.9987 21.2742 35.9575 21.4736 35.8775C21.673 35.7975 21.8541 35.6803 22.0065 35.5326C22.1589 35.385 22.2796 35.2098 22.3618 35.017C22.4439 34.8243 22.4859 34.6178 22.4853 34.4093H21.5201ZM20.8445 35.0637H1.64194V35.9989H20.8445V35.0637ZM1.6431 35.0637C1.55435 35.0641 1.46641 35.0474 1.38444 35.0145C1.30246 34.9817 1.2281 34.9334 1.1657 34.8724C1.04048 34.7488 0.969497 34.5833 0.967554 34.4105H6.53441e-06C-0.000450588 34.619 0.041712 34.8257 0.12408 35.0185C0.206449 35.2113 0.327406 35.3866 0.480026 35.5342C0.632647 35.6819 0.813935 35.799 1.01351 35.8789C1.21309 35.9589 1.42703 36 1.6431 36V35.0637ZM0.967554 34.4105V1.59289H6.53441e-06V34.4105H0.967554ZM0.967554 1.59177C0.968168 1.41797 1.0393 1.25132 1.1657 1.12755C1.22822 1.06678 1.3026 1.01858 1.38455 0.985748C1.4665 0.952914 1.55437 0.936097 1.6431 0.93627V0C1.42688 0.000146267 1.21281 0.0414602 1.01316 0.121575C0.813497 0.201689 0.632167 0.319032 0.479547 0.466886C0.326926 0.61474 0.20601 0.7902 0.123724 0.983224C0.0414386 1.17625 -0.000603015 1.38304 6.53441e-06 1.59177H0.967554ZM1.6431 0.93627H20.8445V0H1.64194V0.93627H1.6431ZM20.8445 0.93627C21.0232 0.936833 21.1944 1.0056 21.3208 1.12755C21.3844 1.18821 21.4348 1.26052 21.469 1.34024C21.5032 1.41996 21.5206 1.50548 21.5201 1.59177H22.4853C22.4861 1.38319 22.4442 1.17651 22.3621 0.983567C22.28 0.790623 22.1593 0.615203 22.0069 0.467349C21.8545 0.319495 21.6734 0.20211 21.474 0.121916C21.2745 0.0417221 21.0606 0.000292896 20.8445 0V0.93627ZM21.5201 1.59177V34.4093H22.4853V1.59289L21.5201 1.59177Z" fill="#161615"/>
<path fill-rule="evenodd" clip-rule="evenodd" d="M5.98338 20.3167C5.99104 20.2382 6.02834 20.1652 6.08818 20.1115C6.14801 20.0579 6.22619 20.0274 6.30782 20.0258C6.30782 20.0258 9.15948 19.7462 9.15948 23.168V27.6424C9.11456 27.9583 9.14543 28.28 9.2497 28.5826C9.35396 28.8851 9.52885 29.1606 9.76085 29.3875C9.99285 29.6145 10.2758 29.787 10.5878 29.8918C10.8998 29.9965 11.2326 30.0306 11.5604 29.9915C11.8846 30.0032 12.2077 29.9492 12.5089 29.8328C12.81 29.7164 13.0826 29.5403 13.3088 29.3158C13.535 29.0913 13.7098 28.8235 13.822 28.5296C13.9342 28.2358 13.9813 27.9225 13.9601 27.61C13.9601 26.7017 13.9485 26.7016 13.9485 26.7016C13.9485 26.7016 13.9601 26.488 13.6368 26.488H12.8837C12.8837 26.488 12.4202 26.5685 12.4202 25.9175V23.121C12.4202 23.121 12.3854 20.0213 15.0111 20.0213C16.6542 20.0213 16.6785 20.0325 16.6785 20.0325C16.733 20.0264 16.7882 20.0319 16.8403 20.0485C16.8923 20.0652 16.94 20.0927 16.9799 20.1291C17.0197 20.1654 17.0509 20.2098 17.0711 20.259C17.0913 20.3082 17.1001 20.3611 17.0968 20.414C17.1073 29.8102 17.1165 28.2789 17.1073 28.5574C17.1073 28.5574 17.2231 32.845 11.5453 32.8551C10.2707 32.8551 5.97642 32.7667 5.97642 28.035C5.97063 19.0717 5.98338 20.3167 5.98338 20.3167Z" fill="#161615"/>
<path fill-rule="evenodd" clip-rule="evenodd" d="M5.97141 12.6891C5.97141 12.6891 5.28427 15.1802 8.5102 17.1847C8.90367 17.3809 9.25227 17.6515 9.53531 17.9803C9.81834 18.3091 10.03 18.6895 10.1578 19.0988C10.2855 19.5082 10.3268 19.9381 10.279 20.3632C10.2313 20.7882 10.0955 21.1996 9.87982 21.573C9.6818 20.7545 9.16609 20.0404 8.43895 19.578C7.71181 19.1156 6.82864 18.94 5.97141 19.0875C5.5126 18.0791 5.2757 16.9897 5.2757 15.8883C5.2757 14.7869 5.5126 13.6975 5.97141 12.6891Z" fill="#E02D15"/>
<path fill-rule="evenodd" clip-rule="evenodd" d="M11.6332 21.4551C11.6332 21.4551 15.354 18.078 10.8893 14.6405C10.8893 14.6405 6.85345 11.5297 8.8036 7.3875C7.89678 8.21334 7.24437 9.26532 6.91859 10.427C6.5928 11.5886 6.60635 12.8147 6.95774 13.9694C7.5507 15.2067 8.55029 16.2204 9.80128 16.8531C10.5538 17.3505 11.132 18.057 11.4591 18.8789C11.7863 19.7007 11.847 20.5991 11.6332 21.4551Z" fill="#FFCC28"/>
<path fill-rule="evenodd" clip-rule="evenodd" d="M13.6854 13.4632C13.6854 13.4632 7.85234 11.7394 9.83262 6.93951C10.1114 6.33489 10.5235 5.79626 11.04 5.36116C11.4997 4.98897 11.865 4.52017 12.108 3.99066C12.3511 3.46115 12.4653 2.88497 12.4421 2.30625C12.6951 3.04763 12.7846 3.83194 12.7048 4.60871C12.625 5.38548 12.3776 6.13753 11.9786 6.81646C11.9786 6.81646 9.94733 11.0437 13.6854 13.4632Z" fill="#BDB400"/>
<path fill-rule="evenodd" clip-rule="evenodd" d="M10.5903 12.7172C10.9658 13.432 11.4911 14.0636 12.1328 14.5722C12.878 15.1307 13.4277 15.8965 13.7077 16.7662C13.9877 17.6359 13.9845 18.5676 13.6985 19.4355C13.6985 19.4355 14.0462 18.9578 17.0872 19.1111C17.0872 19.1111 17.6667 14.7187 13.8017 14.1235C12.6031 13.998 11.4776 13.5051 10.5903 12.7172Z" fill="#8B4083"/>
<path d="M179.125 13.6664H135.881V13.6116C135.881 10.8827 134.961 8.9721 133.167 7.92877C128.887 5.45584 121.394 9.21037 120.557 9.64694L121.638 11.5989C123.603 10.5793 129.294 8.2721 131.984 9.83193C132.577 10.2655 133.039 10.8448 133.321 11.5094C133.603 12.174 133.695 12.8995 133.587 13.6101V13.6649H122.05V15.8847H128.28V21.0097L128.616 21.3293L130.456 23.1052L131.058 23.228L131.697 23.3494L135.544 21.8443C135.661 23.1111 135.349 24.3806 134.654 25.4612C134.229 25.9785 133.689 26.3969 133.074 26.6853C132.458 26.9737 131.784 27.1249 131.099 27.1276C130.541 27.175 125.596 27.3688 123.782 19.8672L121.549 20.3718C123.562 28.6948 129.146 29.3519 130.863 29.3519C131.069 29.3519 131.216 29.3445 131.299 29.3356C132.311 29.3088 133.305 29.0636 134.207 28.6181C135.109 28.1725 135.896 27.5379 136.511 26.7606C137.766 24.7351 138.161 22.3197 137.613 20.0196L136.066 19.2501L131.539 21.0185L130.58 20.0877V15.8833H141.83C141.185 17.2672 140.729 18.7263 140.474 20.2238C140.037 22.3042 140.27 24.4638 141.141 26.4127C142.013 28.3616 143.481 30.0064 145.349 31.1263L146.623 29.2809C145.13 28.4001 143.955 27.0965 143.258 25.5478C142.561 23.9991 142.376 22.2805 142.727 20.6264C143.014 18.9706 143.573 17.3695 144.381 15.8833H153.61V18.9422C153.044 18.4791 152.389 18.1297 151.681 17.9145C150.974 17.6992 150.229 17.6225 149.491 17.6887C148.98 17.7139 148.479 17.8371 148.017 18.0512C147.556 18.2652 147.143 18.5657 146.803 18.9353C146.463 19.3049 146.203 19.7361 146.038 20.2038C145.872 20.6715 145.805 21.1663 145.839 21.6593C145.824 22.0857 145.897 22.5108 146.054 22.9097C146.21 23.3087 146.448 23.6734 146.752 23.9828C147.057 24.2921 147.422 24.5397 147.827 24.7112C148.231 24.8828 148.667 24.9747 149.109 24.9817V22.7693C148.218 22.7693 148.139 21.7881 148.133 21.5942C148.114 21.3872 148.138 21.1786 148.204 20.9807C148.27 20.7829 148.376 20.5999 148.517 20.4426C148.658 20.2852 148.83 20.1568 149.023 20.0648C149.216 19.9728 149.426 19.9192 149.641 19.9071C150.604 19.8827 151.543 20.2033 152.276 20.8072C153.009 21.4111 153.484 22.2556 153.61 23.1777V23.3923C152.834 23.4984 152.102 23.8059 151.492 24.282C150.882 24.7582 150.418 25.3852 150.149 26.0961C149.932 26.7211 149.897 27.3914 150.047 28.0343C150.197 28.6772 150.527 29.2681 151.001 29.7426C151.288 30.024 151.631 30.2469 152.009 30.3979C152.387 30.5489 152.793 30.625 153.202 30.6217C153.589 30.6216 153.973 30.5611 154.34 30.4426L153.622 28.3367C153.457 28.4086 153.273 28.4311 153.094 28.4013C152.915 28.3715 152.749 28.2908 152.618 28.1695C152.447 27.9841 152.33 27.7582 152.279 27.5147C152.228 27.2713 152.245 27.0192 152.328 26.7843C152.499 26.4198 152.772 26.1091 153.117 25.8874C153.462 25.6658 153.864 25.5422 154.278 25.5308C157.837 24.9995 159.202 29.4984 159.259 29.6923H159.282V29.9143H161.582V15.8833H163.127C163.224 15.9129 163.326 15.9439 163.434 15.9735C166.415 16.8215 169.106 17.8974 168.799 20.0122L164.005 23.4826L164.723 25.4745C164.799 25.4745 172.486 25.3428 174.534 29.2646L176.706 28.7644V15.8892H179.15L179.125 13.6664ZM159.276 25.2644C158.396 24.2906 157.213 23.6191 155.903 23.3509V15.8833H159.276V25.2644ZM167.832 23.4722L170.502 21.538L170.542 21.4847C171.993 21.5333 173.369 22.1207 174.382 23.1244V25.8046C172.429 24.5225 170.18 23.7228 167.832 23.4722ZM174.384 20.582C173.383 20.0171 172.269 19.664 171.115 19.546C171.081 18.8077 170.862 18.0884 170.476 17.4501C170.09 16.8118 169.549 16.2736 168.9 15.8818H174.384V20.582Z" fill="#5F1414"/>
<path d="M71.0463 15.3991C70.8035 15.3909 70.5618 15.3622 70.3242 15.3133C70.0856 15.2635 69.843 15.2338 69.5991 15.2245C69.3765 15.2651 69.1637 15.3459 68.9721 15.4627C68.7402 15.6017 68.4776 15.6858 68.2056 15.7084C67.6795 15.6749 67.1622 15.5615 66.6726 15.3725C65.5175 16.8305 64.6616 18.4881 64.1508 20.2562L64.2581 20.3301C64.3317 20.3301 64.4697 20.3479 64.6782 20.3686C64.8336 20.3907 64.9902 20.4036 65.1473 20.4071C65.6792 20.3804 66.2061 20.2935 66.7171 20.1481C67.2188 19.9993 67.737 19.9084 68.2608 19.8773C69.0273 19.8773 69.7049 20.4811 70.2966 21.6887C70.7703 22.5357 71.0357 23.4765 71.0723 24.4384C70.9477 25.0355 70.7113 25.6057 70.3748 26.121C69.4515 27.085 68.1898 27.6832 66.8351 27.7992C65.1401 27.8009 63.4528 27.5778 61.8206 27.1362C60.9131 26.8832 59.331 26.3371 57.0791 25.5083C55.8649 25.0451 55.0862 24.7432 54.7182 24.5878C53.9291 24.2667 53.1682 23.8841 52.4432 23.4439C52.3039 23.2501 52.2296 23.0197 52.2302 22.7838C52.2302 22.3561 52.4892 22.143 53.0059 22.143C53.1469 22.1429 53.2854 22.1786 53.4075 22.2466C54.4081 22.6699 55.4081 23.103 56.4076 23.546C57.4237 23.9713 58.4625 24.3443 59.5196 24.6633C61.4339 25.2844 63.4265 25.6523 65.4431 25.757C66.1567 25.785 66.8609 25.5921 67.4529 25.2064C67.7139 25.0336 67.9249 24.7994 68.066 24.526C68.2071 24.2525 68.2736 23.9488 68.2593 23.6437C68.2517 23.3329 68.158 23.0298 67.9878 22.7659C67.8177 22.5019 67.5774 22.2869 67.2919 22.143C66.2668 22.6669 65.1267 22.946 63.9669 22.957C63.7906 22.957 63.3245 22.9081 62.5733 22.809C61.6229 22.6728 61.1523 22.2585 61.1523 21.5614C61.1523 20.342 62.115 18.0896 64.0481 14.8205C63.9691 14.784 63.8883 14.7514 63.8059 14.7228C63.0789 14.8436 62.3446 14.9187 61.6076 14.9477C60.5498 15.001 59.8047 15.0572 59.3586 15.1253C58.7437 14.8853 58.0886 14.7554 57.4255 14.742C57.0752 14.8691 56.7493 15.0516 56.4613 15.2822C56.2298 15.3147 56.1056 15.3295 56.0872 15.3295C55.7653 15.3295 55.5783 14.8693 55.5246 13.9547C55.8727 13.9072 56.2083 13.7962 56.5134 13.6277C56.9129 13.4019 57.3658 13.2791 57.8287 13.271C58.4834 13.3897 59.1456 13.4658 59.8109 13.4989C60.1528 13.5137 60.6525 13.5403 61.3132 13.5788C61.1864 13.0789 61.1317 12.5644 61.1507 12.0501C61.1514 11 61.2592 9.95263 61.4727 8.92303C61.6117 7.85456 62.0471 6.84217 62.7328 5.99281C63.0607 5.71585 63.4096 5.46306 63.7768 5.23658C64.3148 5.16554 65.1565 5.01903 66.2986 4.8L66.9424 5.40676C66.5891 6.14796 66.0874 6.81438 65.4661 7.36764C65.1963 6.91035 65.0062 6.67949 64.879 6.67949C64.3777 6.67949 64.045 7.22261 63.8856 8.30738C63.8335 9.01478 63.7768 9.7281 63.7246 10.4429C63.6979 11.0825 63.6355 11.7203 63.5376 12.3535C63.5376 12.6494 63.5376 12.8566 63.5376 12.9617C63.5376 13.0668 63.6909 13.1585 63.9408 13.2429C64.1368 13.316 64.344 13.3575 64.554 13.3657C64.5187 13.3657 64.8299 13.342 65.4907 13.2932C66.2652 13.691 67.0972 13.9743 67.9588 14.1338C68.2314 14.1234 68.5016 14.0812 68.7636 14.008C69.0256 13.9206 69.2935 13.8508 69.5654 13.7993C69.5853 13.7993 69.8889 13.7904 70.4775 13.7653C71.838 13.5114 73.1607 13.0964 74.4158 12.5296C74.5684 12.6382 74.6969 12.7752 74.7938 12.9325C74.8907 13.0899 74.954 13.2643 74.98 13.4456C74.98 13.8896 74.4358 14.3424 73.3458 14.8205C72.6231 15.1494 71.8433 15.3456 71.0463 15.3991Z" fill="#D9000D"/>
<path d="M74.3225 15.0369C74.342 14.8937 74.3502 14.7492 74.347 14.6048C74.3181 14.4659 74.2434 14.3397 74.1339 14.2452C73.9929 14.0972 73.8917 14.0217 73.8396 14.0217C73.2231 14.2162 72.6436 14.5067 72.1242 14.8816C71.8086 14.5714 71.6021 14.1732 71.5339 13.7435C71.6329 13.3146 71.8144 12.9075 72.069 12.5433C73.9565 12.1568 75.8778 11.9442 77.807 11.9084C78.5551 11.9084 79.5199 11.9356 80.7013 11.9898C82.2895 12.0549 83.2553 12.0993 83.5956 12.1186C84.3564 12.1076 85.1172 12.1338 85.8752 12.197L86.3857 12.2222C86.9118 12.1585 87.4155 11.9782 87.8574 11.6953L88.2054 11.8433C88.3682 11.8587 88.5254 11.9093 88.6653 11.9913C88.9167 12.1112 89.1129 12.4708 89.257 13.0761L88.7971 13.3306L88.5549 13.2803L86.8119 13.8649C85.4179 13.8106 84.0239 13.7696 82.6298 13.742C81.2453 13.7293 79.8644 13.6006 78.503 13.3573C78.4084 13.327 78.3098 13.31 78.2102 13.3069C78.0058 13.3069 77.7819 13.4594 77.5387 13.7642C77.3552 13.9874 77.1581 14.1999 76.9485 14.4006C76.7876 14.9245 76.5453 15.697 76.2249 16.7137L76.2786 16.9401L76.3599 17.0689L76.438 17.0925H76.5193C76.7264 17.101 76.9314 17.0494 77.108 16.9445L79.4933 16.3881C79.8536 15.9648 80.2092 15.5401 80.5664 15.1139C80.9069 14.6999 81.3046 14.3329 81.7483 14.0232L82.5777 14.1224L83.5696 15.0384C83.685 15.3302 83.7402 15.6408 83.7321 15.953C83.7045 16.1818 83.6007 16.3958 83.4362 16.5627C83.3105 17.2948 83.0422 18.8152 82.6314 21.1238L80.1939 20.8663L80.2184 20.1012C80.2361 19.9315 80.2448 19.7611 80.2445 19.5906C80.2943 19.3737 80.2943 19.1489 80.2445 18.9321C80.2092 18.7086 80.1218 18.5991 79.9777 18.5991C79.073 19.0486 78.1962 19.5487 77.3517 20.0967C77.1993 20.3078 77.0285 20.5058 76.8412 20.6887C76.6603 20.742 76.3813 20.8367 76.0103 20.9669C75.3867 20.9188 74.8074 20.6367 74.3967 20.181C73.986 19.7253 73.7766 19.1325 73.8135 18.5295C73.8135 18.272 73.8488 17.7718 73.9193 17.023C73.9515 16.3644 73.9637 15.8228 73.9454 15.3951L74.3225 15.0369Z" fill="#D9000D"/>
<path d="M85.5046 24.5796L81.8346 26.4887C81.3885 26.5524 81.1187 26.5894 81.0283 26.5894C80.5555 26.5681 80.0986 26.4186 79.7098 26.1582C79.321 25.8978 79.0161 25.5369 78.8299 25.1169C78.3658 24.3783 78.1158 23.5329 78.1063 22.6691C78.2282 21.7121 78.7279 20.8373 79.5014 20.2272L79.6639 20.2554C80.1024 19.7031 80.6593 19.2488 81.2965 18.9234H81.9649C82.4871 18.9593 82.9733 19.1935 83.3171 19.5746C83.5236 19.7423 83.6842 19.9566 83.7848 20.1984C83.8853 20.4402 83.9226 20.7022 83.8934 20.9613C83.5531 21.2997 83.0166 21.7747 82.2838 22.3864C81.8975 22.6782 81.5384 23.002 81.2107 23.3543L81.269 23.6088C81.2984 23.8005 81.4026 23.9742 81.5602 24.0942L81.6691 24.1209C81.6759 24.1286 81.6844 24.1348 81.6939 24.1391C81.7034 24.1434 81.7137 24.1458 81.7243 24.146C82.5938 24.019 83.3948 23.616 84.0008 23.0006C84.7728 22.3881 85.4656 21.688 86.0642 20.9154C86.5826 20.9512 87.0776 21.138 87.4837 21.4511L87.8348 21.6524C87.8871 21.8418 87.9053 22.0386 87.8885 22.234C87.8721 23.4712 87.8282 25.327 87.7566 27.8014C87.7487 28.1776 87.7036 28.5523 87.6217 28.9202C87.3897 29.8654 86.4153 30.4909 84.6983 30.7967C84.3069 30.8313 83.7079 30.8905 82.9016 30.9743C82.3267 31.0891 81.7443 31.1657 81.1586 31.2037C79.2868 31.2073 77.4412 30.7802 75.7746 29.9576C74.1348 29.0779 72.5906 28.0418 71.1649 26.8646L71.8072 25.4424C73.101 26.3091 74.4429 27.107 75.8268 27.8325C76.993 28.5492 78.2961 29.0333 79.6593 29.2561C80.567 29.2717 81.4713 29.1432 82.3359 28.8758C83.1407 28.5354 83.9532 28.2039 84.7795 27.8843C84.8633 27.8271 84.9279 27.7473 84.965 27.6549C85.1383 27.1578 85.2595 26.6451 85.3268 26.1247C85.4238 25.6144 85.4832 25.0981 85.5046 24.5796Z" fill="#D9000D"/>
<path d="M90.22 13.1654C90.2998 12.4944 90.4715 11.8365 90.7305 11.209C91.0677 10.3832 91.4648 9.97032 91.9094 9.97032C92.3539 9.97032 92.6758 10.2826 92.9288 10.9101L92.8215 13.0145C93.4253 12.7135 94.0966 12.561 94.7761 12.5705C95.4199 12.5705 95.7434 12.7984 95.7434 13.2602C95.7281 13.537 95.6246 13.8026 95.4471 14.0206C95.2695 14.2386 95.0267 14.3984 94.7516 14.4781C94.1854 14.6922 93.6455 14.9661 93.1419 15.295C91.9831 16.7601 91.4469 18.5967 91.6426 20.4303C91.6605 21.179 91.7178 21.9263 91.8143 22.6694C91.9129 23.4124 91.9717 24.1597 91.9906 24.9085C91.9851 25.4175 91.903 25.923 91.7468 26.4091C91.5862 26.6204 91.3821 26.7974 91.1474 26.9291C90.9126 27.0607 90.6522 27.1442 90.3825 27.1742C90.0759 27.1742 89.7693 26.9301 89.4704 26.4343L89.4994 23.3265C89.4994 22.8692 89.4994 21.8022 89.5255 20.1269C89.5255 19.8546 89.5424 19.4225 89.5777 18.8276C89.6129 18.2889 89.6313 17.8627 89.6313 17.5593C89.6396 17.265 89.6662 16.9714 89.711 16.6802C89.7571 16.3887 89.7838 16.0945 89.7907 15.7997C89.7765 15.568 89.7033 15.3434 89.5777 15.1456C88.5557 14.5842 87.6711 14.1402 86.924 13.8136V12.902C87.2807 12.3406 87.6016 12.0604 87.8867 12.0614C88.7108 12.3301 89.4951 12.7013 90.22 13.1654Z" fill="#D9000D"/>
<path d="M113.526 13.6293C113.383 13.8951 113.192 14.1338 112.962 14.3337C112.689 14.4859 112.389 14.5864 112.077 14.6297C111.594 14.7773 111.141 15.0046 110.739 15.3015C110.165 15.6848 109.871 15.9631 109.853 16.1303V20.1468C109.884 21.5553 109.833 22.9645 109.699 24.3675C109.375 26.4008 108.633 27.4171 107.472 27.4161C106.805 27.3207 106.176 27.0585 105.648 26.6554C105.304 26.0917 105.008 25.5029 104.76 24.8943C104.545 24.3438 104.334 23.7814 104.118 23.2042C103.762 22.3252 103.413 21.8812 103.069 21.8812C102.726 21.8812 102.031 22.4021 101.02 23.4381C100.008 24.474 99.3026 24.9905 98.8917 24.9905C98.1252 24.9905 97.5687 24.5125 97.2268 23.5668C97.1226 23.225 97.0123 22.889 96.9095 22.559C96.7883 22.2029 96.6165 21.8647 96.399 21.5542C96.0771 21.0969 95.7444 20.6381 95.4072 20.1793C95.0844 19.7422 94.8823 19.2329 94.82 18.6994C94.82 18.0705 95.1772 17.7582 95.8931 17.7582C96.0987 17.7731 96.3034 17.7983 96.5064 17.8337C97.5164 18.6245 98.3163 19.6367 98.8396 20.7861C98.9637 21.1072 99.1339 21.27 99.347 21.27C99.4559 21.27 99.626 21.1516 99.856 20.9148C100.448 20.2518 100.814 19.8192 100.955 19.617C101.313 19.1711 101.519 18.6294 101.545 18.066C101.538 16.9446 101.082 15.8692 100.273 15.0648C99.9101 14.6456 99.4571 14.3076 98.9454 14.0743C98.4337 13.8409 97.8755 13.7179 97.3096 13.7136C96.278 13.8229 95.2873 14.164 94.4169 14.7096L94.2022 15.1402C93.7545 14.7333 93.4307 14.2159 93.2656 13.6441L93.3989 13.209C94.0313 12.7152 94.7469 12.3303 95.5145 12.0709C96.27 11.9696 97.0335 11.9344 97.7956 11.9658C98.1476 11.9426 98.4924 11.8584 98.8135 11.7172C99.1496 11.5553 99.4981 11.4188 99.856 11.3088C100.615 11.1572 101.389 11.0896 102.163 11.1075C104.414 11.0916 106.66 11.3034 108.865 11.7394C109.019 12.0088 109.197 12.2781 109.376 12.5474C109.658 12.9914 109.848 13.206 109.937 13.206C110.188 13.1782 110.433 13.1092 110.661 13.0018C110.937 12.8796 111.238 12.8185 111.542 12.8227C111.891 12.7202 112.251 12.6605 112.615 12.6451C113.238 12.6451 113.55 12.8937 113.55 13.3851L113.526 13.6293ZM106.874 14.0421C105.924 13.6796 104.921 13.4643 103.902 13.4043H102.991C101.991 13.4043 101.492 13.4961 101.492 13.6855C101.706 14.2547 102.013 14.7873 102.401 15.2631C103.064 16.1671 103.485 17.2154 103.627 18.3146C103.646 18.4918 103.646 18.6703 103.627 18.8474C104.977 20.2608 106.081 21.8767 106.894 23.6319C106.968 23.1258 107.038 22.5561 107.112 21.9286C107.406 20.0654 107.593 18.188 107.673 16.3049C107.706 15.895 107.652 15.4828 107.514 15.0936C107.377 14.7043 107.159 14.3476 106.874 14.0421Z" fill="#D9000D"/>
<path d="M119.792 20.0063H113.562V22.225H119.792V20.0063Z" fill="#161615"/>
</svg>